<?xml version="1.0" standalone="no"?>
<!DOCTYPE svg PUBLIC "-//W3C//DTD SVG 20010904//EN"
 "http://www.w3.org/TR/2001/REC-SVG-20010904/DTD/svg10.dtd">
<svg version="1.0" xmlns="http://www.w3.org/2000/svg"
 width="700.000000pt" height="700.000000pt" viewBox="0 0 700.000000 700.000000"
 preserveAspectRatio="xMidYMid meet">
<metadata>
Created by potrace 1.14, written by Peter Selinger 2001-2017
</metadata>
<g transform="translate(0.000000,700.000000) scale(0.100000,-0.100000)"
fill="#000000" stroke="none">
<path d="M1254 6114 c-61 -15 -113 -59 -138 -116 l-22 -50 1 -1402 c1 -770 5
-1419 9 -1441 19 -105 30 -147 58 -235 94 -297 313 -565 593 -727 95 -55 256
-120 346 -139 154 -32 173 -32 1069 -33 963 0 952 0 1145 53 139 39 357 156
462 248 145 127 278 299 346 448 36 79 83 208 90 250 3 14 8 43 12 65 4 22 10
49 13 60 3 11 7 272 9 580 2 308 4 591 6 630 l2 69 165 2 c170 1 250 11 343
43 310 107 518 356 573 689 10 55 11 578 2 642 -9 58 -11 66 -49 143 -50 104
-181 202 -299 223 -72 13 -4686 11 -4736 -2z m3557 -468 c3 -270 -1 -2443 -5
-2463 -3 -16 -8 -48 -11 -72 -4 -25 -13 -65 -22 -90 -103 -305 -341 -524 -646
-593 -89 -20 -119 -21 -942 -21 -467 0 -868 2 -890 6 -297 44 -538 216 -670
476 -39 78 -55 124 -75 221 -17 79 -18 175 -19 1326 -1 682 1 1243 4 1246 3 3
741 5 1640 5 l1635 0 1 -41z m1095 -206 c0 -135 -4 -267 -9 -295 -13 -73 -52
-148 -105 -203 -98 -101 -181 -129 -400 -130 l-142 -1 0 438 0 439 328 -1 327
-2 1 -245z"/>
<path d="M785 1511 c-171 -79 -168 -319 5 -399 32 -15 242 -16 2365 -17 1955
-2 2338 0 2378 12 190 55 207 321 26 403 -43 19 -71 20 -2389 20 -2261 0
-2346 -1 -2385 -19z"/>
</g>
</svg>
